<mxfile host="app.diagrams.net" modified="2023-09-13T16:26:14.708Z" agent="Mozilla/5.0 (Windows NT 10.0; Win64; x64) AppleWebKit/537.36 (KHTML, like Gecko) Chrome/115.0.0.0 Safari/537.36 OPR/101.0.0.0" version="21.7.5" etag="8s1QljYp5SrgQe9_ktft" type="github">
  <diagram name="Страница — 1" id="zEwPG2Rf7rxG7eiGCEeS">
    <mxGraphModel>
      <root>
        <mxCell id="0" />
        <mxCell id="1" parent="0" />
      </root>
    </mxGraphModel>
  </diagram>
</mxfile>
